
      <svg data-logo="logo" xmlns="http://www.w3.org/2000/svg" viewBox="0 0 186 43">
        <g id="logogram" transform="translate(0, 1) rotate(0)"><path d="M0.452637 20.81C0.452637 9.76427 9.40694 0.809967 20.4526 0.809967H46.7026C57.7484 0.809967 66.7026 9.76427 66.7026 20.81V40.81H20.4526C9.40694 40.81 0.452637 31.8557 0.452637 20.81Z" fill="#4845D2"/><path d="M46.7026 8.30997H20.4526C13.5491 8.30997 7.95264 13.9064 7.95264 20.81C7.95264 27.7135 13.5491 33.31 20.4526 33.31H46.7026C53.6062 33.31 59.2026 27.7135 59.2026 20.81C59.2026 13.9064 53.6062 8.30997 46.7026 8.30997Z" fill="#A5B4FC"/><path d="M20.4526 27.06C23.9044 27.06 26.7026 24.2617 26.7026 20.81C26.7026 17.3582 23.9044 14.56 20.4526 14.56C17.0009 14.56 14.2026 17.3582 14.2026 20.81C14.2026 24.2617 17.0009 27.06 20.4526 27.06Z" fill="black"/><path d="M17.9526 19.56C18.643 19.56 19.2026 19.0003 19.2026 18.31C19.2026 17.6196 18.643 17.06 17.9526 17.06C17.2623 17.06 16.7026 17.6196 16.7026 18.31C16.7026 19.0003 17.2623 19.56 17.9526 19.56Z" fill="white"/><path d="M47.9526 27.06C51.4044 27.06 54.2026 24.2617 54.2026 20.81C54.2026 17.3582 51.4044 14.56 47.9526 14.56C44.5009 14.56 41.7026 17.3582 41.7026 20.81C41.7026 24.2617 44.5009 27.06 47.9526 27.06Z" fill="black"/><path d="M45.4526 19.56C46.143 19.56 46.7026 19.0003 46.7026 18.31C46.7026 17.6196 46.143 17.06 45.4526 17.06C44.7623 17.06 44.2026 17.6196 44.2026 18.31C44.2026 19.0003 44.7623 19.56 45.4526 19.56Z" fill="white"/></g>
        <g id="logotype" transform="translate(73, 1)"><path fill="#111111" d="M12.60 34L6.84 34L15.54 8.54L22.37 8.54L31.29 34L25.50 34L21.42 21.71Q20.68 19.34 19.92 16.51Q19.16 13.68 18.32 10.33L18.32 10.33L19.45 10.33Q18.65 13.70 17.94 16.54Q17.23 19.39 16.53 21.71L16.53 21.71L12.60 34ZM25.86 28.09L12.27 28.09L12.27 24.00L25.86 24.00L25.86 28.09ZM32.16 8.54L37.37 8.54L37.37 34L32.16 34L32.16 8.54ZM39.80 21.49L51.39 21.49L51.39 25.57L39.80 25.57L39.80 21.49ZM60.58 12.86L52.79 12.86L52.79 8.54L73.58 8.54L73.58 12.86L65.81 12.86L65.81 34L60.58 34L60.58 12.86ZM79.91 34L74.78 34L74.78 14.89L79.73 14.89L79.73 18.23L79.94 18.23Q80.47 16.45 81.71 15.54Q82.95 14.64 84.55 14.64L84.55 14.64Q84.95 14.64 85.40 14.68Q85.85 14.72 86.21 14.81L86.21 14.81L86.21 19.39Q85.87 19.27 85.22 19.20Q84.57 19.13 83.99 19.13L83.99 19.13Q82.83 19.13 81.89 19.64Q80.95 20.14 80.43 21.04Q79.91 21.93 79.91 23.13L79.91 23.13L79.91 34ZM91.88 34L86.76 34L86.76 14.89L91.88 14.89L91.88 34ZM89.32 12.40L89.32 12.40Q88.16 12.40 87.34 11.63Q86.52 10.86 86.52 9.77L86.52 9.77Q86.52 8.67 87.34 7.90Q88.16 7.13 89.32 7.13L89.32 7.13Q90.48 7.13 91.31 7.90Q92.14 8.66 92.14 9.77L92.14 9.77Q92.14 10.86 91.31 11.63Q90.48 12.40 89.32 12.40ZM99.09 41.14L93.97 41.14L93.97 14.89L99.01 14.89L99.01 18.11L99.25 18.11Q99.61 17.35 100.26 16.55Q100.92 15.75 102.00 15.20Q103.08 14.65 104.70 14.65L104.70 14.65Q106.82 14.65 108.58 15.75Q110.34 16.84 111.39 19.03Q112.44 21.22 112.44 24.48L112.44 24.48Q112.44 27.66 111.41 29.86Q110.39 32.05 108.63 33.19Q106.87 34.32 104.66 34.32L104.66 34.32Q103.11 34.32 102.03 33.79Q100.96 33.27 100.28 32.49Q99.61 31.71 99.25 30.94L99.25 30.94L99.09 30.94L99.09 41.14ZM103.09 30.21L103.09 30.21Q104.43 30.21 105.34 29.47Q106.25 28.74 106.72 27.44Q107.19 26.14 107.19 24.46L107.19 24.46Q107.19 22.79 106.72 21.51Q106.25 20.23 105.35 19.49Q104.44 18.76 103.09 18.76L103.09 18.76Q101.78 18.76 100.85 19.47Q99.93 20.17 99.45 21.45Q98.97 22.72 98.97 24.46L98.97 24.46Q98.97 26.19 99.46 27.48Q99.95 28.77 100.87 29.49Q101.79 30.21 103.09 30.21Z"/></g>
        
      </svg>
    